<?xml version="1.0" encoding="iso-8859-1"?>
<!-- Generator: Adobe Illustrator 17.0.2, SVG Export Plug-In . SVG Version: 6.00 Build 0)  -->
<!DOCTYPE svg PUBLIC "-//W3C//DTD SVG 1.1//EN" "http://www.w3.org/Graphics/SVG/1.1/DTD/svg11.dtd">
<svg version="1.1" id="Layer_1" xmlns="http://www.w3.org/2000/svg" xmlns:xlink="http://www.w3.org/1999/xlink" x="0px" y="0px"
	 width="64px" height="64px" viewBox="0 0 64 64" style="enable-background:new 0 0 64 64;" xml:space="preserve">
<g>
	<path d="M16.833,44.167h32c1.378,0,2.5-1.121,2.5-2.5V41.5h7.359l1.557-3.241V25.569L58.332,22.5h-6.998v-0.167
		c0-1.379-1.122-2.5-2.5-2.5h-32c-1.378,0-2.5,1.121-2.5,2.5V27.5H3.336v9.086h10.997v5.081
		C14.333,43.046,15.455,44.167,16.833,44.167z M51.417,25.5h5.252l0.582,0.931v11.145L56.806,38.5h-5.39V25.5z M17.333,33.586V30.5
		v-3v-4.667h31v18.334h-31v-4.581V33.586z M6.336,33.586V30.5h7.997v3.086H6.336z"/>
	<path d="M36.73,30.846c0.588,0,1.148,0,1.743,0c0,1.206,0,2.396,0,3.582c0.614,0,1.194,0,1.797,0c0-1.203,0-2.387,0-3.582
		c0.584,0,1.144,0,1.724,0c0,0.61,0,1.203,0,1.796c0,0.592,0,1.183,0,1.785c0.621,0,1.217,0,1.826,0c0-1.153,0-2.285,0-3.418
		c0-0.874-0.495-1.37-1.371-1.37c-2.411,0-4.823,0-7.234,0c-0.096,0-0.192,0-0.299,0c0,1.611,0,3.191,0,4.789
		c0.61,0,1.199,0,1.813,0C36.73,33.226,36.73,32.043,36.73,30.846z"/>
	<path d="M32.76,34.447c0.857,0,1.382-0.518,1.387-1.371c0.004-0.693,0.002-1.386,0-2.079c-0.003-0.831-0.534-1.357-1.369-1.358
		c-1.8-0.001-3.6,0-5.4,0c-0.096,0-0.192,0-0.309,0c0,0.414,0,0.794,0,1.198c1.754,0,3.487,0,5.227,0c0,0.817,0,1.611,0,2.406
		c-1.142,0-2.264,0-3.421,0c0-0.548,0-1.084,0-1.632c-0.623,0-1.21,0-1.812,0c0,0.942,0,1.866,0,2.835c0.121,0,0.209,0,0.297,0
		C29.16,34.447,30.96,34.448,32.76,34.447z"/>
	<path d="M21.079,32.739c0.03,0,0.058,0,0.088,0c1.074,0,2.121,0,3.189,0c0,0.576,0,1.132,0,1.687c0.648,0,1.272,0,1.894,0
		c0-1.602,0-3.183,0-4.775c-0.634,0-1.251,0-1.901,0c0,0.642,0,1.277,0,1.926c-1.075,0-2.119,0-3.181,0c-0.03,0-0.061,0-0.091,0
		c0-0.646,0-1.273,0-1.923c-0.647,0-1.255,0-1.87,0c0,1.602,0,3.189,0,4.78c0.626,0,1.234,0,1.873,0
		C21.079,33.858,21.079,33.297,21.079,32.739z"/>
	<path d="M46.461,29.658c-0.637,0-1.243,0-1.853,0c0,1.605,0,3.191,0,4.772c0.629,0,1.236,0,1.853,0
		C46.461,32.833,46.461,31.253,46.461,29.658z"/>
</g>
</svg>
